<svg width="21" height="21" viewBox="0 0 21 21" fill="none" xmlns="http://www.w3.org/2000/svg">
<mask id="mask0_35_8053" style="mask-type:alpha" maskUnits="userSpaceOnUse" x="0" y="0" width="21" height="21">
<rect width="21" height="21" fill="#D9D9D9"/>
</mask>
<g mask="url(#mask0_35_8053)">
<path d="M18.245 3.5H16.3788V4.64423H18.1014V17.2308H2.02357V4.64423H3.7462V3.5H1.88001C1.74579 3.50224 1.61331 3.53079 1.49016 3.58405C1.36702 3.6373 1.2556 3.71421 1.16229 3.81037C1.06897 3.90653 0.995586 4.02006 0.946318 4.14449C0.89705 4.26891 0.872866 4.40179 0.875148 4.53553V17.3395C0.872866 17.4732 0.89705 17.6061 0.946318 17.7305C0.995586 17.8549 1.06897 17.9685 1.16229 18.0646C1.2556 18.1608 1.36702 18.2377 1.49016 18.291C1.61331 18.3442 1.74579 18.3728 1.88001 18.375H18.245C18.3792 18.3728 18.5117 18.3442 18.6348 18.291C18.758 18.2377 18.8694 18.1608 18.9627 18.0646C19.056 17.9685 19.1294 17.8549 19.1787 17.7305C19.2279 17.6061 19.2521 17.4732 19.2499 17.3395V4.53553C19.2521 4.40179 19.2279 4.26891 19.1787 4.14449C19.1294 4.02006 19.056 3.90653 18.9627 3.81037C18.8694 3.71421 18.758 3.6373 18.6348 3.58405C18.5117 3.53079 18.3792 3.50224 18.245 3.5Z" fill="#121212"/>
<path d="M4.375 7.875H5.25V9.625H4.375V7.875Z" fill="#121212"/>
<path d="M7.875 7.875H8.75V9.625H7.875V7.875Z" fill="#121212"/>
<path d="M11.375 7.875H12.25V9.625H11.375V7.875Z" fill="#121212"/>
<path d="M14.875 7.875H15.75V9.625H14.875V7.875Z" fill="#121212"/>
<path d="M4.375 11.375H5.25V12.25H4.375V11.375Z" fill="#121212"/>
<path d="M7.875 11.375H8.75V12.25H7.875V11.375Z" fill="#121212"/>
<path d="M11.375 11.375H12.25V12.25H11.375V11.375Z" fill="#121212"/>
<path d="M14.875 11.375H15.75V12.25H14.875V11.375Z" fill="#121212"/>
<path d="M4.375 14H5.25V14.875H4.375V14Z" fill="#121212"/>
<path d="M7.875 14H8.75V14.875H7.875V14Z" fill="#121212"/>
<path d="M11.375 14H12.25V14.875H11.375V14Z" fill="#121212"/>
<path d="M14.875 14H15.75V14.875H14.875V14Z" fill="#121212"/>
<path d="M5.6875 6.125C5.80353 6.125 5.91481 6.06738 5.99686 5.96482C6.07891 5.86227 6.125 5.72317 6.125 5.57812V2.29688C6.125 2.15183 6.07891 2.01273 5.99686 1.91018C5.91481 1.80762 5.80353 1.75 5.6875 1.75C5.57147 1.75 5.46019 1.80762 5.37814 1.91018C5.29609 2.01273 5.25 2.15183 5.25 2.29688V5.57812C5.25 5.72317 5.29609 5.86227 5.37814 5.96482C5.46019 6.06738 5.57147 6.125 5.6875 6.125Z" fill="#121212"/>
<path d="M14.4375 6.125C14.5535 6.125 14.6648 6.06738 14.7469 5.96482C14.8289 5.86227 14.875 5.72317 14.875 5.57812V2.29688C14.875 2.15183 14.8289 2.01273 14.7469 1.91018C14.6648 1.80762 14.5535 1.75 14.4375 1.75C14.3215 1.75 14.2102 1.80762 14.1281 1.91018C14.0461 2.01273 14 2.15183 14 2.29688V5.57812C14 5.72317 14.0461 5.86227 14.1281 5.96482C14.2102 6.06738 14.3215 6.125 14.4375 6.125Z" fill="#121212"/>
<path d="M7 3.5H13.125V5.25H7V3.5Z" fill="#121212"/>
</g>
</svg>
