<svg width="23" height="24" viewBox="0 0 23 24" fill="none" xmlns="http://www.w3.org/2000/svg">
<path d="M22.0721 3.07392L15.1269 21.8339C14.6883 23.0192 13.4248 23.6282 12.3059 23.1931C12.0289 23.0833 11.7775 22.9174 11.5677 22.7058C11.3579 22.4942 11.1941 22.2414 11.0868 21.9634L8.88528 16.3984C8.47157 15.3302 7.65144 14.4693 6.60445 14.0044L1.30545 11.6932C0.202947 11.2114 -0.29872 9.87558 0.183114 8.70892C0.297083 8.42721 0.465785 8.17091 0.679459 7.95483C0.893133 7.73875 1.14754 7.56719 1.42795 7.45008L19.2966 0.158416C20.4248 -0.302418 21.6766 0.276249 22.0908 1.45225C22.2739 1.97258 22.2658 2.54892 22.0721 3.07392Z" fill="#FE2E81"/>
</svg>
