<svg width="17" height="21" viewBox="0 0 17 21" fill="none" xmlns="http://www.w3.org/2000/svg">
<path d="M15.9418 18.316H1.65012C1.37938 18.316 1.11973 18.4236 0.928286 18.615C0.736842 18.8065 0.629291 19.0661 0.629291 19.3369C0.629291 19.6076 0.736842 19.8673 0.928286 20.0587C1.11973 20.2502 1.37938 20.3577 1.65012 20.3577H15.9418C16.2125 20.3577 16.4722 20.2502 16.6636 20.0587C16.8551 19.8673 16.9626 19.6076 16.9626 19.3369C16.9626 19.0661 16.8551 18.8065 16.6636 18.615C16.4722 18.4236 16.2125 18.316 15.9418 18.316ZM1.65012 16.2744H1.742L5.99887 15.8865C6.46519 15.84 6.90133 15.6345 7.23408 15.3046L16.4216 6.11708C16.7782 5.74036 16.9709 5.23764 16.9575 4.71908C16.9441 4.20053 16.7257 3.70843 16.3501 3.35062L13.553 0.553537C13.188 0.210635 12.7096 0.0138829 12.2089 0.00070719C11.7083 -0.0124685 11.2202 0.158852 10.8376 0.482079L1.65012 9.66958C1.32016 10.0023 1.1147 10.4385 1.06825 10.9048L0.629291 15.1617C0.615539 15.3112 0.63494 15.4619 0.686111 15.6031C0.737282 15.7442 0.818963 15.8724 0.925332 15.9783C1.02072 16.0729 1.13384 16.1478 1.25822 16.1986C1.3826 16.2494 1.51578 16.2751 1.65012 16.2744ZM12.1341 1.9827L14.921 4.76958L12.8793 6.7602L10.1435 4.02437L12.1341 1.9827ZM3.04867 11.0783L8.79596 5.37187L11.5522 8.12812L5.83554 13.8448L2.77304 14.1306L3.04867 11.0783Z" fill="#121212"/>
</svg>
