<svg width="23" height="23" viewBox="0 0 23 23" fill="none" xmlns="http://www.w3.org/2000/svg">
<path d="M0.0671992 9.95759C0.295545 7.9139 1.08207 5.97251 2.34059 4.34618C3.5991 2.71985 5.28103 1.47135 7.20204 0.737511C9.12305 0.00366989 11.209 -0.187191 13.2313 0.185846C15.2536 0.558884 17.1341 1.48142 18.6669 2.85235C20.1997 4.22329 21.3255 5.9897 21.9209 7.95802C22.5163 9.92633 22.5584 12.0206 22.0426 14.0112C21.5267 16.0019 20.4729 17.8121 18.9964 19.2436C17.52 20.675 15.6781 21.6724 13.6724 22.1264C13.9284 21.7232 14.0393 21.2449 13.9869 20.7702C13.9344 20.2956 13.7218 19.853 13.384 19.5154L13.37 19.5014C13.6208 19.1293 13.8409 18.7374 14.028 18.3296C14.3567 17.6121 14.6191 16.8661 14.812 16.1008H10.8402C10.997 15.6556 11.1062 15.1866 11.1608 14.7008H15.1088C15.3039 13.5444 15.4008 12.3735 15.3986 11.2008C15.3986 9.96459 15.2964 8.78579 15.1102 7.70079H7.287C7.26193 7.84751 7.2386 7.99452 7.217 8.14179C6.77917 7.96827 6.32315 7.84475 5.8576 7.77359L5.8688 7.70079H2.0426C1.93786 7.97419 1.84536 8.25214 1.7654 8.53379C1.1186 8.90479 0.543199 9.38779 0.0671992 9.95759ZM14.0294 4.07199C13.1684 2.22679 12.1184 1.40079 11.1986 1.40079C10.2788 1.40079 9.2288 2.22679 8.3678 4.07199C8.04006 4.78958 7.77858 5.53561 7.5866 6.30079H14.8134C14.6206 5.53551 14.3581 4.78947 14.0294 4.07199ZM6.1432 6.30079C6.3896 5.26059 6.713 4.30999 7.0994 3.47979C7.3598 2.92119 7.6608 2.39759 7.9982 1.93559C5.76831 2.7086 3.89094 4.25801 2.709 6.30079H6.1432ZM19.6882 16.1008H16.2526C16.0302 17.0711 15.7098 18.0162 15.2964 18.9218C15.0473 19.4643 14.7463 19.9814 14.3976 20.466C16.6275 19.693 18.5063 18.1436 19.6882 16.1008ZM16.5284 14.7008H20.3546C20.7704 13.6144 20.9986 12.4328 20.9986 11.2008C20.9986 9.96879 20.7704 8.78719 20.3546 7.70079H16.5284C16.7048 8.80399 16.7986 9.98279 16.7986 11.2008C16.7986 12.4188 16.7048 13.5976 16.5284 14.7008ZM19.6882 6.30079C18.5064 4.25792 16.6289 2.70849 14.399 1.93559C14.7364 2.39759 15.0374 2.92119 15.2978 3.47979C15.6842 4.30999 16.0076 5.26059 16.254 6.30079H19.6882ZM8.8242 16.9352C9.56608 15.9431 9.90463 14.7068 9.77172 13.4751C9.63881 12.2434 9.0443 11.1078 8.10785 10.2968C7.17139 9.48576 5.9625 9.05956 4.72447 9.10394C3.48643 9.14831 2.31116 9.65998 1.43518 10.536C0.559196 11.412 0.0475275 12.5872 0.00314803 13.8253C-0.0412314 15.0633 0.384973 16.2722 1.19599 17.2086C2.007 18.1451 3.14262 18.7396 4.37429 18.8725C5.60597 19.0054 6.84228 18.6669 7.8344 17.925L11.4044 21.495C11.5364 21.6225 11.7132 21.6931 11.8968 21.6915C12.0803 21.6899 12.2559 21.6162 12.3857 21.4865C12.5155 21.3567 12.5891 21.1811 12.5907 20.9976C12.5923 20.814 12.5217 20.6372 12.3942 20.5052L8.8242 16.9352ZM8.3986 14.0008C8.3986 14.929 8.02985 15.8193 7.37347 16.4757C6.7171 17.132 5.82686 17.5008 4.8986 17.5008C3.97034 17.5008 3.0801 17.132 2.42373 16.4757C1.76735 15.8193 1.3986 14.929 1.3986 14.0008C1.3986 13.0725 1.76735 12.1823 2.42373 11.5259C3.0801 10.8695 3.97034 10.5008 4.8986 10.5008C5.82686 10.5008 6.7171 10.8695 7.37347 11.5259C8.02985 12.1823 8.3986 13.0725 8.3986 14.0008Z" fill="#A9A9A9"/>
</svg>
