<svg width="30" height="30" viewBox="0 0 30 30" fill="none" xmlns="http://www.w3.org/2000/svg">
<rect width="30" height="30" fill="#FF0000" fill-opacity="0.01"/>
<path fill-rule="evenodd" clip-rule="evenodd" d="M5.72612 7.44C7.92 4.74918 11.2461 3 15 3C21.6169 3 27 8.38306 27 15C27 21.6169 21.6169 27 15 27C8.38306 27 3 21.6169 3 15C3 13.7647 5.43714 13.6475 5.48938 15C5.6955 20.3788 9.61835 24.5015 15 24.5015C20.3816 24.5015 24.5234 20.3831 24.5234 15C24.5234 9.61835 20.3831 5.45123 15 5.45123C11.8631 5.45123 9.08612 6.72 7.28612 9L9.00339 10.7173C9.31837 11.0323 9.09529 11.5708 8.64983 11.5708H3.2C3.08954 11.5708 3 11.4813 3 11.3708V5.92099C3 5.47554 3.53857 5.25245 3.85355 5.56744L5.72612 7.44ZM15.0005 10C15.0005 9.45613 15.0005 9.00372 15.9979 9.00372C16.9954 9.00372 16.998 9.45193 16.998 10V16.0256C16.998 17.0081 15.9903 18.0023 14.977 18.0023H11.0005C11.0005 18.0023 10.0029 17.9639 10.0029 16.9857C10.0029 16.0076 11.0005 16.0256 11.0005 16.0256H15.04L15.0005 10Z" fill="black"/>
<mask id="mask0_35_8345" style="mask-type:luminance" maskUnits="userSpaceOnUse" x="3" y="3" width="24" height="24">
<path fill-rule="evenodd" clip-rule="evenodd" d="M5.72612 7.44C7.92 4.74918 11.2461 3 15 3C21.6169 3 27 8.38306 27 15C27 21.6169 21.6169 27 15 27C8.38306 27 3 21.6169 3 15C3 13.7647 5.43714 13.6475 5.48938 15C5.6955 20.3788 9.61835 24.5015 15 24.5015C20.3816 24.5015 24.5234 20.3831 24.5234 15C24.5234 9.61835 20.3831 5.45123 15 5.45123C11.8631 5.45123 9.08612 6.72 7.28612 9L9.00339 10.7173C9.31837 11.0323 9.09529 11.5708 8.64983 11.5708H3.2C3.08954 11.5708 3 11.4813 3 11.3708V5.92099C3 5.47554 3.53857 5.25245 3.85355 5.56744L5.72612 7.44ZM15.0005 10C15.0005 9.45613 15.0005 9.00372 15.9979 9.00372C16.9954 9.00372 16.998 9.45193 16.998 10V16.0256C16.998 17.0081 15.9903 18.0023 14.977 18.0023H11.0005C11.0005 18.0023 10.0029 17.9639 10.0029 16.9857C10.0029 16.0076 11.0005 16.0256 11.0005 16.0256H15.04L15.0005 10Z" fill="white"/>
</mask>
<g mask="url(#mask0_35_8345)">
<rect width="30" height="30" fill="#C1C0C9"/>
</g>
</svg>
