<svg width="252" height="178" viewBox="0 0 252 178" fill="none" xmlns="http://www.w3.org/2000/svg">
<g clip-path="url(#clip0_35_8656)">
<path d="M16.7024 178H235.285C235.396 178 235.502 177.956 235.58 177.879C235.659 177.801 235.703 177.696 235.703 177.586C235.703 177.476 235.659 177.371 235.58 177.293C235.502 177.216 235.396 177.172 235.285 177.172H16.7024C16.5916 177.172 16.4853 177.216 16.407 177.293C16.3287 177.371 16.2847 177.476 16.2847 177.586C16.2847 177.696 16.3287 177.801 16.407 177.879C16.4853 177.956 16.5916 178 16.7024 178Z" fill="#CCCCCC"/>
<path opacity="0.1" d="M58.6984 77.7162C45.9149 65.2447 40.5157 52.2337 43.4951 41.0804C47.3186 26.7675 64.3044 16.8713 90.0972 13.9294L90.1924 14.7504C64.7587 17.6512 48.032 27.3252 44.3011 41.2918C41.4016 52.1461 46.7224 64.8729 59.2834 77.1276L58.6984 77.7162Z" fill="#FD0166"/>
<path opacity="0.1" d="M182.038 121.987C166.083 121.987 148.746 119.637 131.525 115.119C110.228 109.531 90.7021 101.098 75.0566 90.7297L75.5199 90.043C91.0901 100.361 110.53 108.756 131.738 114.32C150.903 119.348 170.212 121.678 187.571 121.063L187.601 121.889C185.768 121.954 183.913 121.987 182.038 121.987Z" fill="#FD0166"/>
<path opacity="0.2" d="M218.64 116.791L218.373 116.008C232.642 111.227 241.567 103.525 244.182 93.7337C247.507 81.2872 240.284 66.8438 223.843 53.064C207.319 39.2142 183.49 27.7224 156.746 20.7059L156.959 19.9071C183.82 26.9545 207.765 38.5058 224.382 52.4332C241.082 66.4304 248.4 81.173 244.988 93.9451C242.298 104.017 233.187 111.917 218.64 116.791Z" fill="#FD0166"/>
<path opacity="0.1" d="M87.6148 122.332C56.2649 108.553 32.1074 90.6756 19.5928 71.9938L20.2873 71.5367C32.7154 90.0892 56.7461 107.86 87.9527 121.577L87.6148 122.332Z" fill="#FD0166"/>
<g opacity="0.3" filter="url(#filter0_f_35_8656)">
<circle cx="121.5" cy="94.5" r="80.5" fill="white"/>
</g>
<path d="M197.839 146.204C194.605 146.204 191.316 146.132 187.972 145.989L188.008 145.163C212.964 146.234 234.982 143.274 251.688 136.603L252 137.369C237.427 143.189 218.853 146.204 197.839 146.204Z" fill="#F0F0F0"/>
<path opacity="0.1" d="M179.649 14.6703C174.468 12.9984 169.138 11.4417 163.808 10.0434C133.137 1.99659 102.988 -0.86043 76.6176 1.78277L76.5337 0.960542C103.002 -1.69132 133.255 1.17254 164.021 9.24454C169.366 10.6469 174.711 12.2081 179.907 13.8848L179.649 14.6703Z" fill="#FD0166"/>
<path opacity="0.1" d="M39.1057 78.9557C26.3221 66.4841 20.923 53.4731 23.9023 42.3198C27.7258 28.0069 44.7116 18.1107 70.5044 15.1688L70.5997 15.9898C45.1659 18.8906 28.4393 28.5646 24.7084 42.5312C21.8088 53.3855 27.1296 66.1123 39.6907 78.367L39.1057 78.9557Z" fill="#FD0166"/>
<path opacity="0.1" d="M162.445 123.226C146.49 123.226 129.153 120.876 111.932 116.358C90.6356 110.771 71.1093 102.337 55.4639 91.969L55.9272 91.2824C71.4973 101.6 90.9371 109.995 112.145 115.559C131.311 120.588 150.62 122.918 167.978 122.303L168.008 123.128C166.175 123.194 164.321 123.226 162.445 123.226Z" fill="#FD0166"/>
<path opacity="0.2" d="M199.047 118.03L198.78 117.247C213.049 112.466 221.974 104.764 224.59 94.9731C227.914 82.5266 220.691 68.0832 204.251 54.3034C187.726 40.4536 163.897 28.9619 137.153 21.9453L137.366 21.1465C164.227 28.1939 188.172 39.7452 204.789 53.6726C221.489 67.6698 228.808 82.4124 225.396 95.1846C222.705 105.256 213.594 113.156 199.047 118.03Z" fill="#FD0166"/>
<path opacity="0.1" d="M68.022 123.571C36.6721 109.792 12.5146 91.915 0 73.2332L0.694521 72.7761C13.1227 91.3286 37.1533 109.1 68.3599 122.816L68.022 123.571Z" fill="#FD0166"/>
<path d="M178.246 147.443C175.012 147.443 171.723 147.371 168.379 147.228L168.415 146.403C193.371 147.474 215.39 144.514 232.095 137.842L232.407 138.609C217.834 144.428 199.26 147.443 178.246 147.443Z" fill="#F0F0F0"/>
<path d="M160.056 15.9097C154.875 14.2378 149.545 12.6811 144.215 11.2827C113.544 3.23598 83.3948 0.378962 57.0245 3.02215L56.9407 2.19992C83.4093 -0.451938 113.662 2.41192 144.428 10.4839C149.773 11.8863 155.118 13.4474 160.314 15.1242L160.056 15.9097Z" fill="#F0F0F0"/>
<path d="M14.2106 56.8248C20.2019 50.1676 29.7592 46.1102 38.4202 48.539C30.43 54.1427 24.6975 62.3667 22.2368 71.7558C21.301 75.3803 20.641 79.5081 17.5995 81.7241C15.707 83.103 13.1994 83.4324 10.872 83.1184C8.54451 82.8043 6.34381 81.9073 4.1728 81.0184L3.58862 81.0686C5.26817 72.3048 8.21918 63.4821 14.2106 56.8248Z" fill="#008000"/>
<path d="M38.3939 48.7243C31.1527 50.4619 24.648 54.4164 19.8038 60.0262C18.7393 61.2155 17.8706 62.5637 17.2298 64.0211C16.6518 65.4607 16.4733 67.0275 16.713 68.5587C16.9075 69.9908 17.2738 71.4333 17.1137 72.8873C17.0205 73.6304 16.77 74.3455 16.3784 74.9859C15.9868 75.6263 15.4631 76.1774 14.8415 76.6031C13.3206 77.7037 11.4913 78.1971 9.68554 78.618C7.68055 79.0853 5.59053 79.5393 3.95614 80.8598C3.75812 81.0198 3.51918 80.7059 3.71691 80.5462C6.56045 78.2487 10.5124 78.5437 13.6585 76.8749C15.1265 76.0963 16.3667 74.8745 16.6682 73.1979C16.9318 71.7318 16.5554 70.2439 16.3458 68.7956C16.0899 67.3053 16.2061 65.7756 16.6843 64.3401C17.2482 62.8551 18.063 61.476 19.0938 60.2619C21.3705 57.4919 24.0725 55.0938 27.1009 53.1556C30.5447 50.9246 34.3483 49.2938 38.347 48.3339C38.5946 48.2746 38.6398 48.6654 38.3939 48.7243Z" fill="white"/>
<path d="M21.2562 58.1288C20.4168 57.1956 19.9395 55.9971 19.9095 54.7473C19.8795 53.4974 20.2987 52.2777 21.0923 51.306C21.2536 51.1099 21.5686 51.3491 21.4071 51.5454C20.6664 52.4489 20.276 53.5851 20.3063 54.7489C20.3367 55.9127 20.7858 57.0273 21.5726 57.8918C21.7434 58.0798 21.4259 58.3158 21.2562 58.1288Z" fill="white"/>
<path d="M16.5178 67.8454C19.0908 68.0148 21.6338 67.2168 23.6395 65.6106C23.8381 65.4513 24.0771 65.7651 23.8787 65.9242C21.7883 67.5918 19.1403 68.4169 16.4631 68.2348C16.208 68.2173 16.264 67.828 16.5178 67.8454Z" fill="white"/>
<path d="M30.6338 51.4383C30.8827 51.8665 31.2349 52.2267 31.659 52.4866C32.083 52.7465 32.5656 52.898 33.0633 52.9274C33.3185 52.9417 33.2622 53.331 33.0087 53.3168C32.4589 53.2818 31.9262 53.1138 31.4571 52.8277C30.988 52.5416 30.5967 52.146 30.3174 51.6754C30.2873 51.6333 30.2746 51.5813 30.2817 51.5302C30.2889 51.479 30.3155 51.4325 30.356 51.4001C30.3981 51.3689 30.4508 51.3554 30.5029 51.3626C30.5549 51.3698 30.6019 51.397 30.6338 51.4383Z" fill="white"/>
<path d="M50.7148 76.1751C50.5552 76.1707 50.3955 76.1662 50.2338 76.1644C48.0872 76.1157 45.9401 76.2398 43.8138 76.5357C43.649 76.5559 43.4823 76.579 43.3185 76.6039C38.2033 77.3707 33.2762 79.0721 28.7877 81.6214C27.0026 82.6375 25.2981 83.7867 23.6889 85.0591C21.4666 86.8164 19.1982 88.897 16.5965 89.7976C16.3261 89.8946 16.0499 89.9749 15.7695 90.038L3.69581 81.771C3.67788 81.7386 3.65793 81.7087 3.63986 81.6762L3.14258 81.368C3.22094 81.2966 3.30377 81.2243 3.38215 81.1529C3.42744 81.1114 3.47542 81.0716 3.52069 81.03C3.55173 81.0029 3.58292 80.9758 3.60937 80.9496C3.61967 80.9405 3.63011 80.9315 3.63851 80.9252C3.66497 80.8989 3.69233 80.8773 3.71687 80.8538C4.17873 80.4481 4.64428 80.0449 5.1135 79.6443C5.11541 79.6415 5.11541 79.6415 5.12 79.6407C8.66593 76.5539 12.5688 73.8948 16.7469 71.7193C16.8725 71.6561 16.9998 71.59 17.1309 71.5305C19.0171 70.5927 20.9775 69.8092 22.9925 69.1878C24.097 68.8511 25.2179 68.57 26.3511 68.3457C29.2801 67.7715 32.282 67.6575 35.2467 68.0078C41.1568 68.707 46.7754 71.2717 50.4384 75.8245C50.532 75.9411 50.6231 76.0559 50.7148 76.1751Z" fill="#008000"/>
<path d="M50.5817 76.3084C43.7444 73.3751 36.1484 72.6515 28.8725 74.2402C27.3 74.5546 25.7874 75.1127 24.3903 75.894C23.0542 76.6986 21.9598 77.8432 21.221 79.2087C20.5063 80.4682 19.9224 81.8385 18.9112 82.9039C18.3854 83.4417 17.7509 83.8632 17.0492 84.1408C16.3475 84.4185 15.5945 84.546 14.8396 84.515C12.9566 84.4864 11.1963 83.7889 9.49872 83.0475C7.61392 82.2243 5.66939 81.3397 3.56219 81.4189C3.30687 81.4285 3.30678 81.0353 3.56171 81.0257C7.22787 80.888 10.204 83.4815 13.7298 84.0262C15.375 84.2805 17.1075 84.0448 18.3668 82.8861C19.468 81.8728 20.0713 80.4602 20.7839 79.1787C21.4849 77.8362 22.5071 76.6841 23.7609 75.8233C25.1134 74.974 26.6018 74.3591 28.1624 74.0048C31.6631 73.1515 35.2773 72.849 38.8728 73.1084C42.9779 73.3818 47.0056 74.3492 50.7815 75.9687C51.0152 76.069 50.8139 76.4081 50.5817 76.3084Z" fill="white"/>
<path d="M31.1848 73.592C31.0816 72.346 31.4286 71.1042 32.1639 70.0884C32.8993 69.0726 33.975 68.3489 35.199 68.0466C35.4469 67.9862 35.5532 68.3651 35.305 68.4255C34.1646 68.705 33.1626 69.3792 32.4799 70.3265C31.7971 71.2738 31.4785 72.4318 31.5816 73.5915C31.6037 73.8435 31.2068 73.8425 31.1848 73.592Z" fill="white"/>
<path d="M21.4986 78.5228C23.4502 80.1933 25.9653 81.0734 28.5426 80.9877C28.7979 80.9791 28.7981 81.3722 28.5431 81.3809C25.8609 81.4651 23.2454 80.5439 21.2184 78.8011C21.0253 78.6349 21.3066 78.3575 21.4986 78.5228Z" fill="white"/>
<path d="M42.7369 73.8453C42.6755 74.3356 42.7379 74.8334 42.9186 75.2939C43.0993 75.7544 43.3925 76.1633 43.772 76.4837C43.9672 76.6474 43.6857 76.9247 43.4919 76.762C43.0742 76.4061 42.7509 75.9542 42.5501 75.4458C42.3494 74.9374 42.2773 74.3881 42.3402 73.8457C42.3418 73.7941 42.3631 73.7451 42.3999 73.7085C42.4367 73.6719 42.4862 73.6506 42.5383 73.6489C42.5908 73.6491 42.6411 73.6699 42.6783 73.7066C42.7155 73.7434 42.7366 73.7932 42.7369 73.8453Z" fill="white"/>
<path d="M248.974 111.398C245.589 103.132 237.963 96.1274 228.982 95.5301C234.607 103.469 237.217 113.124 236.351 122.787C236.003 126.512 235.224 130.62 237.337 133.72C238.652 135.649 240.902 136.794 243.201 137.274C245.499 137.753 247.876 137.641 250.222 137.527L250.756 137.769C252.146 128.956 252.359 119.663 248.974 111.398Z" fill="#008000"/>
<path d="M228.945 95.7134C235.175 99.7618 239.96 105.653 242.62 112.55C243.22 114.025 243.581 115.584 243.69 117.17C243.746 118.718 243.383 120.253 242.638 121.616C241.969 122.9 241.135 124.136 240.792 125.559C240.628 126.29 240.621 127.047 240.773 127.78C240.925 128.514 241.231 129.207 241.672 129.815C242.731 131.358 244.287 132.433 245.845 133.43C247.575 134.538 249.389 135.662 250.481 137.45C250.613 137.667 250.944 137.451 250.812 137.234C248.913 134.124 245.091 133.085 242.694 130.465C241.576 129.243 240.822 127.679 241.107 126C241.355 124.531 242.215 123.255 242.903 121.961C243.65 120.643 244.059 119.163 244.095 117.652C244.068 116.065 243.768 114.495 243.209 113.008C242.004 109.641 240.273 106.483 238.078 103.648C235.591 100.4 232.562 97.5973 229.121 95.3613C228.908 95.2229 228.733 95.576 228.945 95.7134Z" fill="white"/>
<path d="M241.896 110.279C243.003 109.68 243.859 108.71 244.311 107.543C244.763 106.376 244.782 105.087 244.364 103.908C244.278 103.669 243.901 103.79 243.986 104.028C244.377 105.126 244.36 106.326 243.937 107.412C243.513 108.498 242.712 109.398 241.678 109.95C241.453 110.071 241.672 110.399 241.896 110.279Z" fill="white"/>
<path d="M243.063 121.009C240.582 120.311 238.458 118.713 237.114 116.532C236.981 116.316 236.649 116.532 236.782 116.748C238.185 119.014 240.399 120.673 242.983 121.394C243.229 121.462 243.308 121.077 243.063 121.009Z" fill="white"/>
<path d="M235.333 100.854C234.953 101.175 234.499 101.397 234.012 101.5C233.524 101.604 233.018 101.586 232.54 101.447C232.294 101.376 232.215 101.761 232.459 101.832C232.989 101.983 233.547 102.002 234.086 101.889C234.625 101.775 235.128 101.533 235.55 101.183C235.593 101.153 235.623 101.109 235.633 101.058C235.644 101.007 235.634 100.955 235.607 100.911C235.578 100.867 235.533 100.837 235.482 100.827C235.43 100.816 235.377 100.826 235.333 100.854Z" fill="white"/>
<path d="M208.031 117.463C208.183 117.512 208.335 117.561 208.487 117.613C210.526 118.283 212.506 119.115 214.408 120.102C214.556 120.176 214.706 120.253 214.851 120.331C219.409 122.757 223.472 126 226.835 129.896C228.172 131.448 229.387 133.098 230.472 134.832C231.969 137.228 233.399 139.943 235.544 141.658C235.766 141.839 235.999 142.007 236.242 142.16L250.417 138.395C250.445 138.37 250.473 138.349 250.502 138.324L251.074 138.2C251.025 138.106 250.971 138.011 250.922 137.917C250.893 137.863 250.861 137.81 250.833 137.755C250.813 137.72 250.793 137.684 250.777 137.65C250.77 137.638 250.763 137.626 250.758 137.617C250.742 137.584 250.723 137.554 250.708 137.524C250.411 136.988 250.109 136.453 249.803 135.92C249.802 135.917 249.802 135.917 249.798 135.914C247.505 131.826 244.731 128.022 241.534 124.581C241.437 124.48 241.339 124.375 241.236 124.275C239.778 122.764 238.197 121.373 236.51 120.116C235.584 119.431 234.624 118.793 233.632 118.205C231.069 116.688 228.28 115.581 225.369 114.923C219.565 113.613 213.404 114.157 208.41 117.225C208.282 117.304 208.158 117.382 208.031 117.463Z" fill="#008000"/>
<path d="M208.111 117.633C215.545 117.148 222.945 118.997 229.259 122.916C230.633 123.736 231.868 124.766 232.919 125.967C233.905 127.17 234.547 128.612 234.78 130.144C235.026 131.569 235.111 133.054 235.702 134.394C236.015 135.076 236.47 135.684 237.036 136.179C237.603 136.674 238.269 137.045 238.99 137.268C240.774 137.868 242.668 137.797 244.518 137.664C246.573 137.517 248.704 137.331 250.662 138.108C250.899 138.202 251.032 137.832 250.796 137.738C247.389 136.387 243.707 137.838 240.201 137.177C238.566 136.868 237.014 136.069 236.221 134.559C235.527 133.237 235.438 131.706 235.202 130.262C234.997 128.764 234.425 127.338 233.536 126.11C232.55 124.86 231.357 123.785 230.007 122.931C227 120.961 223.698 119.473 220.224 118.519C216.265 117.41 212.143 116.979 208.038 117.247C207.784 117.263 207.858 117.65 208.111 117.633Z" fill="white"/>
<path d="M227.3 121.536C227.82 120.396 227.915 119.111 227.567 117.91C227.218 116.708 226.451 115.668 225.4 114.976C225.187 114.836 224.959 115.158 225.172 115.297C226.151 115.94 226.866 116.909 227.188 118.029C227.51 119.148 227.417 120.345 226.927 121.403C226.821 121.633 227.195 121.764 227.3 121.536Z" fill="white"/>
<path d="M234.751 129.406C232.346 130.329 229.679 130.32 227.281 129.381C227.043 129.288 226.91 129.658 227.147 129.751C229.645 130.724 232.42 130.728 234.921 129.761C235.159 129.669 234.988 129.314 234.751 129.406Z" fill="white"/>
<path d="M216.334 117.926C216.226 118.409 215.998 118.857 215.672 119.23C215.346 119.604 214.931 119.891 214.465 120.066C214.225 120.156 214.396 120.511 214.634 120.422C215.148 120.226 215.606 119.908 215.967 119.496C216.329 119.084 216.583 118.591 216.708 118.059C216.724 118.01 216.72 117.956 216.698 117.91C216.676 117.863 216.636 117.827 216.588 117.808C216.538 117.79 216.484 117.793 216.437 117.815C216.389 117.837 216.352 117.877 216.334 117.926Z" fill="white"/>
<path d="M70.7527 47.8677C72.5945 47.8677 74.0876 46.388 74.0876 44.5627C74.0876 42.7373 72.5945 41.2576 70.7527 41.2576C68.9108 41.2576 67.4177 42.7373 67.4177 44.5627C67.4177 46.388 68.9108 47.8677 70.7527 47.8677Z" fill="#FE2E81"/>
<path d="M198.406 80.4754C198.701 78.6736 197.466 76.9759 195.648 76.6836C193.83 76.3912 192.117 77.6148 191.822 79.4165C191.527 81.2183 192.762 82.9159 194.58 83.2083C196.398 83.5007 198.111 82.2771 198.406 80.4754Z" fill="#FE2E81"/>
<path d="M70.6172 10.6745C72.459 10.6745 73.9522 9.1948 73.9522 7.36947C73.9522 5.54414 72.459 4.06442 70.6172 4.06442C68.7753 4.06442 67.2822 5.54414 67.2822 7.36947C67.2822 9.1948 68.7753 10.6745 70.6172 10.6745Z" fill="#FE2E81"/>
<path d="M170.126 46.2613H169.174V20.4182C169.174 16.4512 167.584 12.6468 164.753 9.84173C161.923 7.03669 158.084 5.46083 154.081 5.46082H98.8335C96.8515 5.46081 94.8889 5.84769 93.0577 6.59936C91.2266 7.35103 89.5628 8.45277 88.1613 9.84168C86.7598 11.2306 85.6481 12.8795 84.8896 14.6942C84.1311 16.5089 83.7407 18.4539 83.7407 20.4181V162.196C83.7407 166.163 85.3308 169.967 88.1613 172.772C90.9917 175.577 94.8306 177.153 98.8334 177.153H154.081C158.084 177.153 161.923 175.577 164.753 172.772C167.584 169.967 169.174 166.163 169.174 162.196V64.6569H170.126V46.2613Z" fill="#FD0166"/>
<path d="M165.96 20.5219V162.092C165.961 163.558 165.669 165.011 165.103 166.366C164.537 167.721 163.707 168.952 162.661 169.989C161.615 171.026 160.373 171.849 159.005 172.41C157.638 172.972 156.173 173.261 154.693 173.261H99.1754C96.1865 173.261 93.32 172.085 91.2065 169.99C89.0929 167.896 87.9054 165.055 87.9053 162.093V20.5219C87.9052 19.0552 88.1966 17.6029 88.7629 16.2479C89.3291 14.8928 90.1592 13.6615 91.2056 12.6244C92.252 11.5872 93.4943 10.7645 94.8616 10.2031C96.2289 9.6418 97.6943 9.35284 99.1742 9.35275H105.913C105.581 10.1585 105.454 11.0327 105.544 11.8984C105.633 12.7641 105.936 13.5947 106.426 14.317C106.916 15.0393 107.577 15.6312 108.352 16.0404C109.127 16.4497 109.992 16.6638 110.87 16.6639H142.522C143.4 16.6632 144.264 16.4488 145.039 16.0394C145.813 15.6299 146.474 15.0381 146.964 14.316C147.454 13.5938 147.757 12.7635 147.846 11.898C147.936 11.0326 147.81 10.1585 147.479 9.35275H154.69C156.17 9.35268 157.636 9.6415 159.003 10.2027C160.37 10.7639 161.613 11.5865 162.659 12.6236C163.706 13.6606 164.536 14.8918 165.102 16.2468C165.669 17.6018 165.96 19.0541 165.96 20.5207L165.96 20.5219Z" fill="#F2F2F2"/>
<path d="M109.334 22.8667H92.1121V23.6306H109.334V22.8667Z" fill="#FD0166"/>
<path d="M135.544 22.8667H118.322V23.6306H135.544V22.8667Z" fill="white"/>
<path d="M153.932 114.341H97.7922C97.603 114.341 97.4158 114.304 97.241 114.233C97.0662 114.161 96.9074 114.056 96.7737 113.923C96.6399 113.791 96.5338 113.633 96.4615 113.46C96.3891 113.287 96.3518 113.101 96.3518 112.914C96.3518 112.726 96.3891 112.541 96.4615 112.368C96.5338 112.194 96.6399 112.037 96.7737 111.904C96.9074 111.772 97.0662 111.667 97.241 111.595C97.4158 111.523 97.603 111.486 97.7922 111.486H153.932C154.121 111.486 154.308 111.523 154.483 111.595C154.658 111.667 154.817 111.772 154.95 111.904C155.084 112.037 155.19 112.194 155.263 112.368C155.335 112.541 155.372 112.726 155.372 112.914C155.372 113.101 155.335 113.287 155.263 113.46C155.19 113.633 155.084 113.791 154.95 113.923C154.817 114.056 154.658 114.161 154.483 114.233C154.308 114.304 154.121 114.341 153.932 114.341Z" fill="#CCCCCC"/>
<path d="M153.932 124.273H97.7922C97.4102 124.273 97.0438 124.122 96.7737 123.855C96.5036 123.587 96.3518 123.224 96.3518 122.845C96.3518 122.467 96.5036 122.104 96.7737 121.836C97.0438 121.568 97.4102 121.418 97.7922 121.418H153.932C154.314 121.418 154.68 121.568 154.95 121.836C155.221 122.104 155.372 122.467 155.372 122.845C155.372 123.224 155.221 123.587 154.95 123.855C154.68 124.122 154.314 124.273 153.932 124.273Z" fill="#CCCCCC"/>
<path d="M153.932 134.204H97.7922C97.4102 134.204 97.0438 134.054 96.7737 133.786C96.5036 133.519 96.3518 133.155 96.3518 132.777C96.3518 132.398 96.5036 132.035 96.7737 131.767C97.0438 131.5 97.4102 131.349 97.7922 131.349H153.932C154.314 131.349 154.68 131.5 154.95 131.767C155.221 132.035 155.372 132.398 155.372 132.777C155.372 133.155 155.221 133.519 154.95 133.786C154.68 134.054 154.314 134.204 153.932 134.204Z" fill="#CCCCCC"/>
<path d="M161.754 22.8667H144.532V23.6306H161.754V22.8667Z" fill="white"/>
<path d="M109.334 159.998H92.1121V160.762H109.334V159.998Z" fill="#FD0166"/>
<path d="M135.544 159.998H118.322V160.762H135.544V159.998Z" fill="white"/>
<path d="M161.754 159.998H144.532V160.762H161.754V159.998Z" fill="white"/>
<path d="M126.933 94.7862C141.351 94.7862 153.038 83.2033 153.038 68.915C153.038 54.6268 141.351 43.0439 126.933 43.0439C112.515 43.0439 100.828 54.6268 100.828 68.915C100.828 83.2033 112.515 94.7862 126.933 94.7862Z" fill="#D1D3D4"/>
<path d="M126.933 93.6638C140.086 93.6638 150.749 83.0967 150.749 70.0615C150.749 57.0263 140.086 46.4592 126.933 46.4592C113.78 46.4592 103.117 57.0263 103.117 70.0615C103.117 83.0967 113.78 93.6638 126.933 93.6638Z" fill="#FE2E81"/>
<path d="M124.854 79.3122C124.802 79.3122 124.75 79.3109 124.698 79.3085C124.241 79.2865 123.795 79.1669 123.389 78.9579C122.983 78.7489 122.628 78.4554 122.347 78.0976L118.594 73.3153C118.078 72.6564 117.846 71.8215 117.951 70.9938C118.055 70.1661 118.486 69.4132 119.15 68.9003L119.285 68.7965C119.95 68.285 120.792 68.0558 121.628 68.159C122.463 68.2623 123.223 68.6896 123.741 69.3473C123.909 69.5622 124.123 69.7384 124.366 69.8639C124.61 69.9894 124.878 70.0612 125.152 70.0744C125.427 70.0903 125.701 70.0459 125.957 69.9444C126.212 69.843 126.441 69.6869 126.629 69.4873L134.25 61.5144C134.83 60.9096 135.628 60.5573 136.469 60.5347C137.31 60.5122 138.126 60.8212 138.738 61.394L138.862 61.5101C139.472 62.0844 139.828 62.8753 139.851 63.7092C139.874 64.5431 139.562 65.352 138.984 65.9583L127.157 78.3297C126.861 78.6402 126.504 78.8874 126.108 79.0564C125.712 79.2253 125.285 79.3123 124.854 79.3122Z" fill="white"/>
<path d="M85.2224 32.7079H82.1389V49.1331H85.2224V32.7079Z" fill="white"/>
<path d="M85.2224 51.043H82.1389V60.5925H85.2224V51.043Z" fill="white"/>
<path d="M85.2224 62.5024H82.1389V72.052H85.2224V62.5024Z" fill="white"/>
<path d="M111.818 13.2268C112.669 13.2268 113.359 12.5427 113.359 11.6989C113.359 10.8551 112.669 10.171 111.818 10.171C110.966 10.171 110.276 10.8551 110.276 11.6989C110.276 12.5427 110.966 13.2268 111.818 13.2268Z" fill="black"/>
<path opacity="0.16" d="M126.933 90.3942C120.908 90.3934 115.107 88.129 110.699 84.0574C106.292 79.9858 103.606 74.4098 103.182 68.4533C103.144 69.0027 103.117 69.5555 103.117 70.1147C103.117 76.3744 105.626 82.3778 110.092 86.804C114.559 91.2303 120.616 93.717 126.933 93.717C133.249 93.717 139.307 91.2303 143.773 86.804C148.24 82.3778 150.749 76.3744 150.749 70.1147C150.749 69.5555 150.722 69.0027 150.684 68.4533C150.26 74.4098 147.574 79.9858 143.167 84.0574C138.759 88.129 132.958 90.3934 126.933 90.3942Z" fill="#231F20"/>
<path d="M160.509 89.1069L179.396 89.8707L181.708 77.2652L165.52 72.2997L160.509 89.1069Z" fill="#FFB8B8"/>
<path d="M167.648 61.8048L167.83 55.8496L158.677 53.5753L142.197 48.8106C141.979 48.1549 141.565 47.5803 141.01 47.1628C140.455 46.7452 139.786 46.5045 139.09 46.4723C138.394 46.4401 137.705 46.6181 137.113 46.9826C136.521 47.3472 136.055 47.8811 135.777 48.5139C135.498 49.1466 135.42 49.8483 135.552 50.5261C135.684 51.2039 136.021 51.8259 136.518 52.3098C137.015 52.7937 137.648 53.1168 138.335 53.2362C139.021 53.3556 139.727 53.2657 140.361 52.9785L156.382 59.5052L167.648 61.8048Z" fill="#FFB8B8"/>
<path d="M161.749 61.7631L166.898 54.4847L167.027 54.5017C167.108 54.5122 175.183 55.5829 180.477 57.1452C181.072 57.3014 181.625 57.5844 182.098 57.9743C182.572 58.3643 182.953 58.8519 183.217 59.4031C183.595 60.1734 183.738 61.0364 183.629 61.8862C183.519 62.7359 183.161 63.5355 182.6 64.1866C182.028 64.8905 181.264 65.4163 180.399 65.7013C179.533 65.9862 178.603 66.0182 177.72 65.7933L161.749 61.7631Z" fill="#FE2E81"/>
<path d="M165.011 172.108L159.773 172.108L157.281 152.086L165.012 152.086L165.011 172.108Z" fill="#FFB8B8"/>
<path d="M205.794 169.861L200.615 170.637L195.131 151.209L201.921 150.064L205.794 169.861Z" fill="#FFB8B8"/>
<path d="M180.167 86.0509L162.051 82.9951L161.407 84.3112C157.94 91.4022 155.892 99.092 155.378 106.955C154.941 113.593 154.684 120.604 154.675 127.953C154.662 139.339 155.248 149.905 156.175 159.519L166.118 159.457C165.831 149.25 166.222 139.035 167.288 128.879C168.049 121.637 169.107 114.872 170.331 108.629C172.6 117.793 175.804 126.705 179.892 135.227C183.366 142.509 190.513 150.926 193.987 158.208C197.547 157.785 201.108 157.361 204.668 156.938C201.862 149.585 196.857 138.847 194.051 131.493C190.04 120.979 188.227 113.85 184.216 103.337C184.445 101.36 184.489 99.3672 184.349 97.3827C184.162 94.0749 183.468 90.1055 181.439 87.4593L180.167 86.0509Z" fill="#2F2E41"/>
<path d="M182.965 80.5704C183.87 82.2463 181.721 85.7182 180.167 86.0509L162.252 80.312L171.272 54.4083L175.811 55.2257L183.069 56.4376L185.643 58.7568C186.292 59.3415 186.755 60.1001 186.977 60.9406C187.198 61.7811 187.169 62.6673 186.892 63.4915L182.965 80.5704Z" fill="#FE2E81"/>
<path d="M170.633 70.5596L165.565 67.3544L158.907 73.9815L146.338 85.5698C145.658 85.4197 144.948 85.4777 144.302 85.7361C143.656 85.9946 143.104 86.4413 142.72 87.0172C142.336 87.5931 142.137 88.271 142.15 88.9613C142.163 89.6516 142.387 90.3217 142.793 90.883C143.199 91.4443 143.767 91.8703 144.422 92.1047C145.077 92.3391 145.789 92.3708 146.463 92.1957C147.137 92.0205 147.741 91.6467 148.196 91.1238C148.651 90.6009 148.935 89.9534 149.01 89.2671L162.871 78.9714L170.633 70.5596Z" fill="#FFB8B8"/>
<path d="M167.576 75.5589L163.905 67.4488L163.985 67.3481C164.036 67.2848 169.099 60.959 173.164 57.2529C173.604 56.8264 174.133 56.5003 174.713 56.2971C175.293 56.0939 175.911 56.0187 176.524 56.0766C177.385 56.1492 178.206 56.4694 178.887 56.9979C179.567 57.5263 180.077 58.24 180.354 59.0515C180.671 59.8985 180.736 60.8182 180.54 61.7006C180.343 62.583 179.895 63.3908 179.248 64.0273L167.576 75.5589Z" fill="#FE2E81"/>
<path d="M178.996 52.6773C183.396 52.6773 186.964 49.1422 186.964 44.7814C186.964 40.4206 183.396 36.8855 178.996 36.8855C174.596 36.8855 171.029 40.4206 171.029 44.7814C171.029 49.1422 174.596 52.6773 178.996 52.6773Z" fill="#FFB8B8"/>
<path d="M185.431 56.2228L185.4 56.2152L173.822 53.3453C173.421 53.2459 173.048 53.0546 172.735 52.787C172.422 52.5193 172.177 52.1826 172.018 51.8039C171.86 51.4252 171.794 51.015 171.825 50.6063C171.855 50.1976 171.982 49.8017 172.195 49.4503L172.577 48.8197C172.951 48.2039 173.163 47.5053 173.194 46.7875C173.225 46.0697 173.074 45.3556 172.755 44.7104C172.207 43.6567 171.263 42.8581 170.127 42.4861L170.089 42.4678L169.846 42.3178C169.607 42.206 169.394 42.046 169.221 41.8479C169.048 41.6499 168.919 41.4182 168.842 41.1678C168.761 40.9083 168.737 40.6349 168.77 40.3655C168.803 40.096 168.893 39.8364 169.033 39.6035C170.055 37.9091 171.585 36.5727 173.409 35.7801C175.714 34.7968 178.31 34.7195 180.671 35.564C180.828 35.4208 181.018 35.3185 181.225 35.2664C181.432 35.2143 181.649 35.2139 181.856 35.2653C187.852 36.7045 188.346 40.6931 187.161 47.0958L188.563 52.7C188.662 53.0957 188.673 53.508 188.595 53.9083C188.518 54.3087 188.353 54.6874 188.112 55.0181C187.872 55.3489 187.561 55.6238 187.203 55.8236C186.844 56.0235 186.446 56.1437 186.036 56.1757L185.431 56.2228Z" fill="#2F2E41"/>
<path d="M166.287 177.298H163.298L162.764 174.501L161.398 177.298H153.469C153.089 177.298 152.719 177.178 152.413 176.955C152.107 176.732 151.881 176.417 151.768 176.058C151.655 175.698 151.661 175.312 151.784 174.956C151.908 174.6 152.144 174.293 152.457 174.079L158.788 169.745V166.917L165.447 167.311L166.287 177.298Z" fill="#2F2E41"/>
<path d="M206.628 177.298H203.638L203.105 174.501L201.738 177.298H193.81C193.43 177.298 193.06 177.178 192.754 176.955C192.448 176.732 192.221 176.417 192.108 176.058C191.995 175.698 192.001 175.312 192.125 174.956C192.249 174.6 192.484 174.293 192.797 174.079L199.129 169.745V166.917L205.788 167.311L206.628 177.298Z" fill="#2F2E41"/>
</g>
<defs>
<filter id="filter0_f_35_8656" x="-4" y="-31" width="251" height="251" filterUnits="userSpaceOnUse" color-interpolation-filters="sRGB">
<feFlood flood-opacity="0" result="BackgroundImageFix"/>
<feBlend mode="normal" in="SourceGraphic" in2="BackgroundImageFix" result="shape"/>
<feGaussianBlur stdDeviation="22.5" result="effect1_foregroundBlur_35_8656"/>
</filter>
<clipPath id="clip0_35_8656">
<rect width="252" height="178" fill="white"/>
</clipPath>
</defs>
</svg>
