<svg width="293" height="251" viewBox="0 0 293 251" fill="none" xmlns="http://www.w3.org/2000/svg">
<g opacity="0.3" filter="url(#filter0_f_1_9)">
<circle cx="125.5" cy="125.5" r="80.5" fill="white"/>
</g>
<path opacity="0.2" d="M58.1695 204.582C56.958 204.582 55.744 204.631 54.5585 204.73L54.386 204.744C46.5224 205.425 40.7705 209.375 41.007 213.932L41.0528 214.756C41.0829 215.277 41.1151 215.837 41.1415 216.458C41.1558 216.765 41.5827 217 42.114 217H235.54C249.177 216.919 262.766 216.817 275.924 216.697C278.394 216.702 280.862 216.576 283.313 216.322C286.97 215.898 289.508 215.058 291.073 213.753H291.074C293.02 212.135 293.081 210.098 292.964 207.796C292.724 203.149 292.486 198.266 292.249 193.398C292.039 189.108 291.831 184.83 291.622 180.734C291.493 178.303 291.206 176.157 288.996 174.517C286.6 172.744 282.231 171.845 276.009 171.845C275.934 171.845 275.859 171.845 275.783 171.845C256.285 171.913 236.965 178.479 227.709 188.184C226.643 189.302 225.649 190.498 224.689 191.656C223.285 193.432 221.735 195.122 220.051 196.713C219.116 197.571 218.09 198.354 216.987 199.052C216.912 199.103 216.826 199.158 216.735 199.209C216.527 199.342 216.31 199.47 216.097 199.584C214.871 200.28 213.561 200.863 212.19 201.324L212.053 201.369C211.95 201.405 211.839 201.441 211.727 201.474C210.937 201.722 210.131 201.933 209.314 202.106C205.785 202.867 201.773 203.05 197.389 202.648C193.34 202.264 189.36 201.47 185.533 200.282C181.473 199.025 177.673 197.458 173.999 195.943C172.385 195.278 170.715 194.59 169.048 193.938C168.734 193.815 168.426 193.695 168.113 193.575C166.077 192.798 164.23 192.156 162.469 191.612C158.142 190.268 153.614 189.446 149.019 189.173C144.169 188.912 139.896 189.403 136.32 190.627C135.327 190.966 134.366 191.371 133.448 191.839C129.212 193.993 126.601 197.172 124.077 200.247C120.936 204.071 117.688 208.025 111.275 210.076C103.875 212.443 93.073 211.46 85.4309 209.749C83.0282 209.211 80.6285 208.592 78.3076 207.994C77.3702 207.752 76.4322 207.512 75.4936 207.273C73.649 206.807 72.1395 206.449 70.7428 206.148L70.3011 206.051C70.0554 205.999 69.8094 205.947 69.559 205.897C67.9002 205.556 66.3555 205.288 64.8342 205.076L64.4743 205.025C63.7528 204.932 63.0782 204.854 62.4162 204.789L62.152 204.764C60.8293 204.642 59.4999 204.581 58.1695 204.582Z" fill="#008000"/>
<path d="M163.505 115.562C162.923 115.633 162.329 115.595 161.766 115.451C161.202 115.306 160.683 115.058 160.245 114.724C159.806 114.39 159.459 113.979 159.228 113.518C158.996 113.058 158.886 112.56 158.905 112.06L145.552 107.694L151.598 104.015L163.352 108.724C164.338 108.808 165.254 109.196 165.926 109.815C166.598 110.435 166.98 111.242 166.999 112.085C167.018 112.928 166.672 113.748 166.028 114.389C165.384 115.029 164.486 115.447 163.505 115.562L163.505 115.562Z" fill="#FFB7B7"/>
<path d="M155.875 112.43L157.96 106.173L157.857 106.114L138.327 94.8272L121.445 80.416L111.61 83.7586L112.256 86.4067L112.298 86.4392L134.744 103.543L134.765 103.552L155.875 112.43Z" fill="#3F3D56"/>
<path d="M135.868 126.722L105.642 123.117L108.302 107.339H130.554L135.868 126.722Z" fill="#FFB6B6"/>
<path d="M84.5103 203.982L90.7105 205.208L99.2185 185.446L90.0677 183.637L84.5103 203.982Z" fill="#FFB6B6"/>
<path d="M78.7415 212.474L83.1878 213.353L84.9569 209.939L86.014 213.912L97.8068 216.243C98.3721 216.355 98.9645 216.31 99.4977 216.115C100.031 215.92 100.477 215.586 100.77 215.16C101.064 214.734 101.19 214.239 101.13 213.748C101.07 213.257 100.827 212.795 100.436 212.43L92.5302 205.035L93.5164 201.425L83.4736 199.969L78.7415 212.474Z" fill="#2F2E41"/>
<path d="M78.7422 212.474L83.1885 213.353L84.9576 209.939L86.0148 213.912L97.8075 216.243C98.3728 216.355 98.9653 216.31 99.4984 216.115C100.032 215.92 100.478 215.586 100.771 215.16C101.065 214.734 101.191 214.239 101.131 213.748C101.07 213.257 100.827 212.795 100.437 212.43L92.5309 205.035L93.5171 201.425L83.4744 199.969L78.7422 212.474Z" fill="#2F2E41"/>
<path d="M122.767 206.921H129.132L132.161 186.034H122.767V206.921Z" fill="#FFB6B6"/>
<path d="M119.407 216.304H123.972L124.787 212.638L126.874 216.304H138.981C139.561 216.304 140.126 216.146 140.594 215.854C141.061 215.561 141.406 215.149 141.579 214.678C141.752 214.206 141.743 213.7 141.554 213.234C141.364 212.767 141.005 212.364 140.527 212.083L130.859 206.403V202.696L120.689 203.213L119.407 216.304Z" fill="#2F2E41"/>
<path d="M105.26 120.44L134.819 118.439C143.542 135.774 137.995 163.446 131.292 194.597L121.785 195.642L121.047 145.587L97.2139 192.153L87.3049 191.723L105.26 120.44Z" fill="#2F2E41"/>
<path d="M122.466 74.7937V66.2861C122.466 63.2627 121.054 60.363 118.541 58.2251C116.028 56.0872 112.62 54.8862 109.066 54.8862C105.512 54.8862 102.104 56.0872 99.5906 58.2251C97.0776 60.363 95.6658 63.2627 95.6658 66.2861C93.3041 70.473 94.7816 72.4636 95.6658 74.7937C95.6666 75.1994 95.8564 75.5883 96.1936 75.8752C96.5309 76.1621 96.9881 76.3236 97.465 76.3243H120.666C121.143 76.3238 121.6 76.1624 121.938 75.8755C122.275 75.5886 122.465 75.1995 122.466 74.7937Z" fill="#2F2E41"/>
<path d="M112.373 76.196C117.799 76.196 122.197 72.454 122.197 67.8379C122.197 63.2218 117.799 59.4798 112.373 59.4798C106.947 59.4798 102.548 63.2218 102.548 67.8379C102.548 72.454 106.947 76.196 112.373 76.196Z" fill="#FFB7B7"/>
<path d="M125.636 66.9665C125.633 64.5757 124.515 62.2835 122.528 60.593C120.541 58.9024 117.846 57.9514 115.036 57.9487H113.036C110.226 57.9514 107.531 58.9024 105.544 60.593C103.557 62.2835 102.439 64.5757 102.436 66.9665V67.1367C103.934 68.0079 105.356 68.1353 106.663 67.1367L108.104 63.7026L108.393 67.1367H110.577L111.306 65.4041L111.451 67.1367C114.402 69.2747 119.982 68.2502 125.636 67.1367V66.9665Z" fill="#2F2E41"/>
<path d="M106.644 111.95L131.658 111.141L133.056 97.2189C134.135 94.6707 134.152 92.4812 133.108 90.7158C132.21 89.2647 130.702 88.1554 128.884 87.6097L123.41 81.9856C122.706 81.2627 121.822 80.682 120.822 80.2853C119.822 79.8886 118.731 79.6859 117.627 79.6918L103.405 79.7745C103.062 79.5992 100.983 78.7001 96.8819 80.2118C92.434 81.8518 93.4668 87.5495 93.4779 87.6067L93.4882 87.6603L93.5371 87.6968L102.997 94.4754L106.644 111.95Z" fill="#FE2E81"/>
<path d="M220.635 87.4729C204.494 102.948 155.928 105.9 124.316 134.307C113.718 106.849 128.732 59.4515 143.695 41.3762C150.88 32.6962 161.824 26.7999 174.119 24.9846C186.415 23.1693 199.054 25.5836 209.257 31.6964C230.503 44.4256 237.883 70.9367 220.635 87.4729Z" fill="#FE2E81"/>
<path d="M181.525 72.6267C190 72.6267 196.87 66.7818 196.87 59.5718C196.87 52.3617 190 46.5168 181.525 46.5168C173.05 46.5168 166.179 52.3617 166.179 59.5718C166.179 66.7818 173.05 72.6267 181.525 72.6267Z" fill="white"/>
<path d="M111.344 148.525C116.895 148.525 121.395 144.697 121.395 139.974C121.395 135.252 116.895 131.423 111.344 131.423C105.793 131.423 101.293 135.252 101.293 139.974C101.293 144.697 105.793 148.525 111.344 148.525Z" fill="#FE2E81"/>
<path d="M99.8459 139.356C99.4082 139.021 99.062 138.609 98.8317 138.149C98.6013 137.688 98.4924 137.19 98.5126 136.69C98.5328 136.189 98.6817 135.699 98.9487 135.253C99.2156 134.807 99.5943 134.416 100.058 134.108L95.4387 122.59L102.636 124.18L105.915 134.873C106.473 135.571 106.71 136.418 106.582 137.254C106.454 138.09 105.97 138.857 105.221 139.41C104.473 139.963 103.512 140.262 102.521 140.252C101.53 140.243 100.577 139.924 99.8442 139.356L99.8459 139.356Z" fill="#FFB7B7"/>
<path d="M97.7824 132.366L104.765 129.718L102.419 109.626L104.604 89.3648L95.2811 85.0844L93.3058 87.2033V87.2514L92.2593 112.872L92.2649 112.891L97.7824 132.366Z" fill="#FE2E81"/>
<path d="M264.274 170.477C263.786 172.034 262.504 173.331 260.955 174.276C260.703 174.431 260.444 174.574 260.181 174.709C260.101 174.749 260.02 174.792 259.936 174.829C259.845 174.875 259.754 174.918 259.663 174.958H252.384C252.252 174.731 252.124 174.502 251.996 174.276C248.877 168.699 246.686 162.68 247.059 156.55C247.208 154.173 247.795 151.83 248.799 149.607C250.798 145.178 254.447 141.344 259.465 139.414C259.589 139.366 259.72 139.317 259.848 139.271C259.808 139.394 259.767 139.515 259.727 139.638C259.189 141.288 258.808 142.972 258.589 144.674C258.569 144.806 258.552 144.937 258.539 145.072C258.061 149.177 258.485 153.322 259.791 157.295C259.794 157.303 259.798 157.315 259.801 157.323C260.087 158.202 260.419 159.068 260.797 159.92C261.093 160.593 261.413 161.257 261.763 161.91C263.224 164.65 265.182 167.571 264.274 170.477Z" fill="#008000"/>
<path d="M259.939 139.4C259.868 139.48 259.798 139.557 259.727 139.638C258.249 141.304 256.993 143.106 255.984 145.009C255.931 145.103 255.88 145.198 255.836 145.295C254.454 147.953 253.566 150.777 253.205 153.667C253.201 153.687 253.198 153.707 253.198 153.727C253.114 154.403 253.063 155.084 253.043 155.766C252.968 157.043 253.131 158.322 253.524 159.557C253.883 160.565 254.512 161.488 255.362 162.254C255.446 162.331 255.53 162.408 255.621 162.483C255.688 162.543 255.762 162.603 255.833 162.66C256.513 163.213 257.257 163.725 257.896 164.318C258.189 164.584 258.454 164.871 258.687 165.177C259.059 165.69 259.299 166.263 259.392 166.86C259.485 167.457 259.428 168.064 259.225 168.642C258.768 170.09 257.721 171.313 256.651 172.478C256.116 173.062 255.564 173.652 255.086 174.276C254.911 174.5 254.749 174.726 254.601 174.958H254.177C254.319 174.726 254.473 174.5 254.642 174.276C255.87 172.63 257.617 171.215 258.522 169.403C259.135 168.181 259.32 166.795 258.546 165.595C258.319 165.246 258.044 164.921 257.728 164.627C257.112 164.035 256.375 163.528 255.705 162.992C255.537 162.858 255.372 162.72 255.214 162.577C254.375 161.852 253.728 160.984 253.316 160.029C252.849 158.817 252.628 157.545 252.663 156.27C252.663 155.457 252.713 154.638 252.807 153.825C252.818 153.722 252.831 153.616 252.844 153.51C253.533 148.393 255.819 143.526 259.464 139.414C259.532 139.334 259.602 139.257 259.673 139.18C259.818 139.019 260.084 139.243 259.939 139.4Z" fill="white"/>
<path d="M252.98 153.852C251.815 153.685 250.756 153.172 249.995 152.402C249.233 151.633 248.818 150.659 248.823 149.654C248.823 149.613 248.843 149.573 248.876 149.544C248.91 149.515 248.956 149.498 249.004 149.497C249.053 149.497 249.099 149.512 249.135 149.539C249.17 149.567 249.192 149.606 249.194 149.647C249.188 150.583 249.575 151.491 250.286 152.205C250.997 152.92 251.985 153.395 253.071 153.545C253.307 153.578 253.215 153.884 252.98 153.852Z" fill="white"/>
<path d="M255.269 162.311C257.249 161.134 258.635 159.364 259.15 157.356C259.201 157.157 259.561 157.234 259.511 157.433C258.97 159.522 257.523 161.361 255.459 162.583C255.262 162.699 255.073 162.427 255.269 162.311Z" fill="white"/>
<path d="M255.873 144.976C256.308 145.12 256.779 145.17 257.243 145.122C257.706 145.073 258.149 144.927 258.53 144.697C258.725 144.579 258.914 144.851 258.72 144.969C258.298 145.221 257.809 145.382 257.297 145.436C256.785 145.491 256.265 145.438 255.782 145.282C255.735 145.271 255.695 145.244 255.67 145.209C255.645 145.173 255.637 145.131 255.647 145.09C255.66 145.05 255.69 145.015 255.733 144.993C255.775 144.972 255.825 144.965 255.873 144.976Z" fill="white"/>
<path d="M285.187 150.472C285.069 150.549 284.948 150.627 284.83 150.707C283.232 151.747 281.737 152.896 280.357 154.142C280.25 154.237 280.142 154.334 280.038 154.432L280.034 154.435C276.764 157.454 274.179 160.962 272.408 164.782L272.398 164.808C272.395 164.816 272.391 164.822 272.388 164.831C271.686 166.359 271.12 167.931 270.695 169.532C270.285 171.095 269.948 172.77 269.305 174.276C269.208 174.508 269.1 174.737 268.985 174.958H254.022C254.073 174.731 254.127 174.502 254.181 174.276C254.942 170.959 256.131 167.723 257.728 164.627C257.782 164.524 257.836 164.421 257.896 164.318C258.72 162.789 259.689 161.319 260.794 159.923L260.794 159.922L260.795 159.921L260.796 159.921L260.797 159.92C261.404 159.159 262.055 158.424 262.749 157.719C264.549 155.897 266.675 154.328 269.049 153.069C269.063 153.06 269.08 153.054 269.093 153.046C273.818 150.552 279.419 149.364 284.773 150.392H284.776C284.914 150.417 285.049 150.443 285.187 150.472Z" fill="#008000"/>
<path d="M285.17 150.624C285.056 150.649 284.941 150.678 284.83 150.707C282.471 151.28 280.195 152.074 278.042 153.074C277.934 153.123 277.827 153.175 277.719 153.226C274.744 154.639 272.043 156.434 269.712 158.549C269.71 158.55 269.709 158.552 269.709 158.555C269.682 158.577 269.652 158.603 269.628 158.626C269.09 159.119 268.571 159.631 268.08 160.158C267.119 161.14 266.344 162.244 265.785 163.431C265.357 164.419 265.206 165.479 265.344 166.526C265.354 166.632 265.371 166.735 265.388 166.841C265.401 166.924 265.415 167.007 265.431 167.093C265.654 168.241 266.037 169.392 265.93 170.563C265.864 171.163 265.65 171.744 265.301 172.269C264.953 172.793 264.477 173.249 263.907 173.606C263.519 173.861 263.104 174.086 262.668 174.276C262.045 174.55 261.395 174.778 260.726 174.958H259.404C259.582 174.915 259.757 174.872 259.936 174.829C260.569 174.677 261.19 174.492 261.797 174.276C262.143 174.153 262.48 174.011 262.806 173.852C264.159 173.191 265.287 172.177 265.522 170.823C265.728 169.638 265.33 168.453 265.095 167.293C265.054 167.093 265.017 166.895 264.997 166.697C264.837 165.693 264.934 164.671 265.283 163.703C265.768 162.494 266.492 161.365 267.424 160.364C268 159.713 268.616 159.087 269.268 158.489C269.349 158.411 269.433 158.334 269.52 158.257C271.9 156.127 274.648 154.319 277.668 152.894H277.672C279.918 151.83 282.301 150.991 284.773 150.392H284.776C284.887 150.363 285.002 150.334 285.113 150.309C285.345 150.257 285.399 150.569 285.17 150.624Z" fill="white"/>
<path d="M269.387 158.597C268.574 157.867 268.093 156.915 268.029 155.911C267.965 154.907 268.323 153.916 269.039 153.116C269.184 152.954 269.486 153.139 269.34 153.301C268.672 154.045 268.339 154.968 268.401 155.903C268.463 156.838 268.915 157.723 269.677 158.399C269.842 158.546 269.552 158.744 269.387 158.597Z" fill="white"/>
<path d="M265.228 166.524C267.642 166.598 270.001 165.895 271.834 164.555C272.015 164.422 272.248 164.669 272.067 164.802C270.157 166.193 267.7 166.92 265.188 166.838C264.948 166.83 264.989 166.516 265.228 166.524Z" fill="white"/>
<path d="M277.979 152.992C278.224 153.33 278.564 153.611 278.969 153.81C279.374 154.009 279.83 154.119 280.297 154.13C280.536 154.136 280.495 154.45 280.257 154.445C279.741 154.43 279.237 154.308 278.79 154.089C278.342 153.87 277.964 153.562 277.689 153.19C277.66 153.157 277.646 153.116 277.652 153.074C277.657 153.033 277.681 152.995 277.718 152.968C277.756 152.942 277.805 152.93 277.854 152.934C277.903 152.939 277.948 152.959 277.979 152.992Z" fill="white"/>
<path d="M173.594 211.633C173.106 213.19 171.824 214.487 170.275 215.432C170.023 215.587 169.764 215.73 169.501 215.865C169.421 215.905 169.34 215.948 169.256 215.985C169.165 216.031 169.074 216.074 168.983 216.114H161.704C161.572 215.888 161.444 215.659 161.317 215.432C158.197 209.855 156.006 203.837 156.379 197.707C156.528 195.329 157.115 192.986 158.119 190.763C160.118 186.334 163.767 182.5 168.785 180.57C168.909 180.522 169.04 180.473 169.168 180.427C169.128 180.55 169.087 180.671 169.047 180.794C168.509 182.444 168.128 184.128 167.91 185.83C167.889 185.962 167.873 186.094 167.859 186.228C167.381 190.333 167.805 194.478 169.111 198.451C169.114 198.46 169.118 198.471 169.121 198.48C169.407 199.359 169.739 200.224 170.117 201.076C170.413 201.749 170.733 202.414 171.083 203.066C172.544 205.806 174.503 208.727 173.594 211.633Z" fill="#008000"/>
<path d="M169.259 180.556C169.188 180.636 169.118 180.714 169.047 180.794C167.569 182.46 166.314 184.262 165.305 186.165C165.251 186.26 165.2 186.354 165.156 186.451C163.774 189.109 162.886 191.933 162.525 194.823C162.521 194.843 162.518 194.863 162.518 194.883C162.434 195.559 162.383 196.241 162.363 196.922C162.288 198.199 162.451 199.479 162.844 200.713C163.203 201.721 163.832 202.644 164.682 203.41C164.766 203.487 164.85 203.565 164.941 203.639C165.008 203.699 165.082 203.759 165.153 203.817C165.833 204.369 166.577 204.882 167.216 205.474C167.509 205.74 167.774 206.027 168.007 206.333C168.379 206.846 168.619 207.419 168.712 208.016C168.805 208.614 168.748 209.221 168.546 209.798C168.088 211.246 167.041 212.469 165.971 213.634C165.436 214.218 164.884 214.808 164.406 215.432C164.231 215.656 164.069 215.882 163.921 216.114H163.497C163.639 215.882 163.793 215.656 163.962 215.432C165.19 213.786 166.937 212.372 167.842 210.559C168.455 209.337 168.64 207.951 167.866 206.751C167.639 206.402 167.364 206.078 167.048 205.784C166.432 205.191 165.695 204.684 165.025 204.149C164.857 204.014 164.692 203.877 164.534 203.733C163.695 203.009 163.048 202.14 162.636 201.185C162.169 199.973 161.948 198.701 161.983 197.426C161.983 196.613 162.033 195.794 162.128 194.981C162.138 194.878 162.151 194.772 162.165 194.666C162.853 189.549 165.139 184.682 168.785 180.57C168.852 180.49 168.922 180.413 168.993 180.336C169.138 180.175 169.404 180.399 169.259 180.556Z" fill="white"/>
<path d="M162.3 195.008C161.135 194.841 160.077 194.328 159.315 193.559C158.553 192.79 158.138 191.815 158.143 190.81C158.143 190.769 158.163 190.729 158.197 190.7C158.23 190.671 158.276 190.654 158.325 190.654C158.373 190.653 158.419 190.668 158.455 190.696C158.49 190.723 158.512 190.762 158.514 190.803C158.508 191.739 158.895 192.647 159.606 193.362C160.317 194.076 161.305 194.552 162.391 194.701C162.627 194.734 162.535 195.04 162.3 195.008Z" fill="white"/>
<path d="M164.588 203.468C166.569 202.29 167.955 200.52 168.47 198.512C168.521 198.313 168.881 198.391 168.83 198.589C168.29 200.678 166.843 202.517 164.779 203.739C164.582 203.855 164.393 203.583 164.588 203.468Z" fill="white"/>
<path d="M165.193 186.132C165.629 186.276 166.099 186.326 166.563 186.278C167.026 186.229 167.469 186.083 167.85 185.853C168.045 185.735 168.234 186.007 168.04 186.125C167.618 186.377 167.129 186.538 166.617 186.592C166.105 186.647 165.585 186.594 165.102 186.438C165.055 186.427 165.015 186.401 164.99 186.365C164.965 186.329 164.957 186.287 164.968 186.246C164.98 186.206 165.01 186.171 165.053 186.149C165.095 186.128 165.145 186.122 165.193 186.132Z" fill="white"/>
<path d="M194.507 191.628C194.389 191.705 194.268 191.783 194.15 191.863C192.552 192.903 191.057 194.052 189.678 195.299C189.57 195.393 189.462 195.49 189.358 195.588L189.354 195.591C186.085 198.61 183.499 202.119 181.728 205.938L181.718 205.964C181.715 205.972 181.711 205.978 181.708 205.987C181.006 207.516 180.44 209.087 180.015 210.688C179.605 212.251 179.268 213.926 178.625 215.432C178.528 215.664 178.42 215.893 178.306 216.114H163.343C163.393 215.888 163.447 215.659 163.501 215.432C164.262 212.115 165.451 208.879 167.048 205.783C167.102 205.68 167.156 205.577 167.216 205.474C168.04 203.945 169.009 202.475 170.114 201.079L170.114 201.078L170.115 201.077L170.116 201.077L170.117 201.076C170.724 200.315 171.375 199.58 172.069 198.875C173.869 197.053 175.995 195.484 178.369 194.225C178.383 194.216 178.4 194.211 178.413 194.202C183.138 191.708 188.739 190.52 194.093 191.548H194.096C194.234 191.574 194.369 191.599 194.507 191.628Z" fill="#008000"/>
<path d="M194.49 191.78C194.376 191.806 194.261 191.834 194.15 191.863C191.792 192.436 189.515 193.23 187.362 194.231C187.254 194.279 187.147 194.331 187.039 194.382C184.064 195.795 181.363 197.59 179.032 199.705C179.031 199.707 179.029 199.709 179.029 199.711C179.002 199.734 178.972 199.759 178.948 199.782C178.41 200.275 177.892 200.787 177.4 201.314C176.439 202.296 175.665 203.401 175.105 204.587C174.677 205.575 174.526 206.635 174.664 207.682C174.674 207.788 174.691 207.891 174.708 207.997C174.721 208.08 174.735 208.163 174.751 208.249C174.974 209.397 175.357 210.548 175.25 211.719C175.184 212.319 174.97 212.9 174.621 213.425C174.273 213.949 173.797 214.405 173.227 214.762C172.839 215.017 172.424 215.242 171.988 215.432C171.365 215.706 170.715 215.934 170.047 216.114H168.724C168.902 216.071 169.077 216.028 169.256 215.985C169.889 215.833 170.51 215.648 171.117 215.432C171.463 215.309 171.8 215.168 172.126 215.009C173.479 214.347 174.607 213.334 174.842 211.979C175.048 210.794 174.651 209.609 174.415 208.449C174.375 208.249 174.338 208.051 174.317 207.854C174.157 206.849 174.254 205.828 174.603 204.859C175.088 203.65 175.812 202.521 176.744 201.52C177.321 200.869 177.936 200.243 178.588 199.645C178.669 199.568 178.753 199.49 178.841 199.413C181.22 197.283 183.968 195.475 186.988 194.05H186.992C189.238 192.987 191.621 192.147 194.093 191.548H194.096C194.207 191.519 194.322 191.491 194.433 191.465C194.665 191.413 194.719 191.725 194.49 191.78Z" fill="white"/>
<path d="M178.707 199.754C177.895 199.023 177.413 198.071 177.349 197.067C177.285 196.063 177.643 195.072 178.359 194.272C178.504 194.11 178.806 194.295 178.66 194.457C177.993 195.201 177.659 196.124 177.721 197.059C177.783 197.994 178.235 198.879 178.997 199.555C179.162 199.702 178.872 199.9 178.707 199.754Z" fill="white"/>
<path d="M174.548 207.68C176.962 207.754 179.321 207.051 181.154 205.711C181.335 205.579 181.568 205.825 181.387 205.958C179.477 207.349 177.02 208.076 174.508 207.994C174.268 207.987 174.309 207.672 174.548 207.68Z" fill="white"/>
<path d="M187.299 194.148C187.544 194.486 187.885 194.767 188.289 194.966C188.694 195.165 189.15 195.275 189.617 195.287C189.856 195.292 189.815 195.606 189.577 195.601C189.061 195.586 188.557 195.464 188.11 195.245C187.662 195.027 187.284 194.718 187.009 194.346C186.98 194.313 186.967 194.272 186.972 194.23C186.977 194.189 187.001 194.151 187.038 194.124C187.076 194.098 187.125 194.086 187.174 194.09C187.223 194.095 187.268 194.116 187.299 194.148Z" fill="white"/>
<path d="M189.777 133.674C192.007 133.674 193.815 132.136 193.815 130.238C193.815 128.341 192.007 126.802 189.777 126.802C187.546 126.802 185.738 128.341 185.738 130.238C185.738 132.136 187.546 133.674 189.777 133.674Z" fill="#FE2E81"/>
<path d="M239.949 92.5181C242.179 92.5181 243.987 90.9798 243.987 89.0823C243.987 87.1847 242.179 85.6465 239.949 85.6465C237.718 85.6465 235.91 87.1847 235.91 89.0823C235.91 90.9798 237.718 92.5181 239.949 92.5181Z" fill="#FE2E81"/>
<path d="M101.293 23.8716C103.523 23.8716 105.331 22.3333 105.331 20.4358C105.331 18.5383 103.523 17 101.293 17C99.062 17 97.2539 18.5383 97.2539 20.4358C97.2539 22.3333 99.062 23.8716 101.293 23.8716Z" fill="#FE2E81"/>
<path d="M41.4197 216.661H292.58C292.692 216.661 292.798 216.624 292.877 216.557C292.956 216.49 293 216.399 293 216.304C293 216.209 292.956 216.119 292.877 216.052C292.798 215.985 292.692 215.947 292.58 215.947H41.4197C41.3084 215.947 41.2016 215.985 41.1229 216.052C41.0442 216.119 41 216.209 41 216.304C41 216.399 41.0442 216.49 41.1229 216.557C41.2016 216.624 41.3084 216.661 41.4197 216.661Z" fill="#CCCCCC"/>
<path opacity="0.2" d="M194.802 53.3216C196.641 55.9973 197.302 59.1426 196.665 62.1947C196.027 65.2467 194.134 68.0063 191.324 69.9794C188.514 71.9525 184.97 73.0103 181.327 72.9636C177.683 72.9169 174.179 71.7686 171.439 69.7244C172.561 71.3582 174.086 72.7652 175.91 73.8478C177.734 74.9305 179.812 75.663 182.002 75.9945C184.191 76.3261 186.439 76.2489 188.59 75.7682C190.741 75.2875 192.743 74.4148 194.458 73.2105C196.174 72.0063 197.561 70.4992 198.524 68.7938C199.486 67.0884 200.002 65.2253 200.035 63.3335C200.067 61.4418 199.616 59.5666 198.713 57.8379C197.809 56.1091 196.475 54.5681 194.802 53.3216Z" fill="#231F20"/>
<path opacity="0.2" d="M213.642 35.5136C226.239 49.3702 228.412 69.2846 214.454 82.6671C198.858 97.6192 152.996 100.883 121.4 126.707C121.926 129.401 122.686 132.057 123.672 134.655C155.284 106.248 203.85 103.296 219.991 87.8208C235.797 72.667 230.919 49.1382 213.642 35.5136Z" fill="#231F20"/>
<defs>
<filter id="filter0_f_1_9" x="0" y="0" width="251" height="251" filterUnits="userSpaceOnUse" color-interpolation-filters="sRGB">
<feFlood flood-opacity="0" result="BackgroundImageFix"/>
<feBlend mode="normal" in="SourceGraphic" in2="BackgroundImageFix" result="shape"/>
<feGaussianBlur stdDeviation="22.5" result="effect1_foregroundBlur_1_9"/>
</filter>
</defs>
</svg>
