<svg width="16" height="18" viewBox="0 0 16 18" fill="none" xmlns="http://www.w3.org/2000/svg">
<path d="M9.21052 17.4326C11.4539 15.4581 15.4453 11.4243 15.4453 7.72263C15.4453 5.67446 14.6316 3.71018 13.1834 2.26191C11.7351 0.813632 9.7708 0 7.72263 0C5.67446 0 3.71018 0.813632 2.26191 2.26191C0.813632 3.71018 3.05201e-08 5.67446 0 7.72263C0 11.4243 3.99003 15.4581 6.23474 17.4326C6.64418 17.798 7.17381 18 7.72263 18C8.27145 18 8.80108 17.798 9.21052 17.4326ZM5.14842 7.72263C5.14842 7.03991 5.41963 6.38515 5.90239 5.90239C6.38515 5.41963 7.03991 5.14842 7.72263 5.14842C8.40535 5.14842 9.06011 5.41963 9.54287 5.90239C10.0256 6.38515 10.2968 7.03991 10.2968 7.72263C10.2968 8.40535 10.0256 9.06011 9.54287 9.54287C9.06011 10.0256 8.40535 10.2968 7.72263 10.2968C7.03991 10.2968 6.38515 10.0256 5.90239 9.54287C5.41963 9.06011 5.14842 8.40535 5.14842 7.72263Z" fill="#C1C0C9"/>
</svg>
